<svg xmlns="http://www.w3.org/2000/svg" width="24" height="27" fill="none" viewBox="0 0 24 27"><path fill="url(#a)" d="M.482.403C.177.715 0 1.2 0 1.83v22.44c0 .63.177 1.115.482 1.428l.075.068 12.88-12.57v-.297L.557.33z"/><path fill="url(#b)" d="m17.726 17.257-4.289-4.192v-.297l4.294-4.192.096.055 5.085 2.824c1.45.802 1.45 2.121 0 2.928l-5.085 2.82z"/><path fill="url(#c)" d="m17.827 17.334-4.39-4.286L.482 25.698c.482.494 1.268.554 2.162.06z"/><path fill="url(#d)" d="M17.827 8.762 2.644.338C1.75-.152.964-.092.482.403l12.955 12.645z"/><defs><linearGradient id="a" x1="12.2935" x2="-4.73119" y1="24.5042" y2="7.06703" gradientUnits="userSpaceOnUse"><stop stop-color="#00A0FF"/><stop offset="0.0066" stop-color="#00A1FF"/><stop offset="0.2601" stop-color="#00BEFF"/><stop offset="0.5122" stop-color="#00D2FF"/><stop offset="0.7604" stop-color="#00DFFF"/><stop offset="1" stop-color="#00E3FF"/></linearGradient><linearGradient id="b" x1="24.8013" x2="-0.346883" y1="12.915" y2="12.915" gradientUnits="userSpaceOnUse"><stop stop-color="#FFE000"/><stop offset="0.4087" stop-color="#FFBD00"/><stop offset="0.7754" stop-color="orange"/><stop offset="1" stop-color="#FF9C00"/></linearGradient><linearGradient id="c" x1="15.4397" x2="-7.64707" y1="10.7177" y2="-12.9285" gradientUnits="userSpaceOnUse"><stop stop-color="#FF3A44"/><stop offset="1" stop-color="#C31162"/></linearGradient><linearGradient id="d" x1="-2.77912" x2="7.53018" y1="33.1634" y2="22.6044" gradientUnits="userSpaceOnUse"><stop stop-color="#32A071"/><stop offset="0.0685" stop-color="#2DA771"/><stop offset="0.4762" stop-color="#15CF74"/><stop offset="0.8009" stop-color="#06E775"/><stop offset="1" stop-color="#00F076"/></linearGradient></defs></svg>