<svg aria-hidden="true" style="position: absolute; width: 0; height: 0; overflow: hidden;" version="1.1" xmlns="http://www.w3.org/2000/svg" xmlns:xlink="http://www.w3.org/1999/xlink">
<defs>
<symbol id="left-arrow" viewBox="0 0 32 32">
<path   d="M21.333 6.667v18.667l-14.667-9.333 14.667-9.333zM18.666 11.533l-7 4.467 7 4.467v-8.933z"></path>
</symbol>
<symbol id="right-arrow" viewBox="0 0 32 32">
<path   d="M10.667 25.333v-18.667l14.667 9.333-14.667 9.333zM13.334 20.467l7-4.467-7-4.467v8.933z"></path>
</symbol>
<symbol id="back-arrow" viewBox="0 0 32 32">
<path  d="M20.943 5.724c0.521 0.521 0.521 1.365 0 1.886l-8.39 8.391 8.39 8.391c0.521 0.521 0.521 1.365 0 1.886s-1.365 0.521-1.886 0l-9.333-9.333c-0.521-0.521-0.521-1.365 0-1.886l9.333-9.333c0.521-0.521 1.365-0.521 1.886 0z"></path>
</symbol>
</defs>
</svg>
